<svg width="80" height="80" fill="none" xmlns="http://www.w3.org/2000/svg"><path d="M20 10V9a1 1 0 00-1 1h1zm40 0h1a1 1 0 00-1-1v1zm0 60v1a1 1 0 001-1h-1zm-40 0h-1a1 1 0 001 1v-1zm0-59h40V9H20v2zm40 58H20v2h40v-2zm-39 1V22.5h-2V70h2zm0-47.5V10h-2v12.5h2zM59 10v12.5h2V10h-2zm0 12.5V70h2V22.5h-2zm-39 1h40v-2H20v2zm17.715 14.167l-.867.497a1 1 0 00.867.503v-1zm4.57 0v1a1 1 0 00.865-.499l-.865-.501zM41.3 53l.405-.914L41.3 53zm2.25 6a1 1 0 102 0h-2zm-10.7-13C30.195 46 28 43.785 28 41h-2c0 3.842 3.043 7 6.85 7v-2zM28 41c0-2.785 2.195-5 4.85-5v-2C29.043 34 26 37.158 26 41h2zm24 0c0 1.467-.436 2.73-1.16 3.606-.709.86-1.728 1.394-3.04 1.394v2c1.919 0 3.5-.809 4.583-2.12C53.452 44.583 54 42.846 54 41h-2zm-4.85-5c2.655 0 4.85 2.215 4.85 5h2c0-3.842-3.043-7-6.85-7v2zm-9.435 2.667h4.57v-2h-4.57v2zM32.85 36c1.835 0 3.18.74 3.998 2.164l1.734-.995C37.366 35.05 35.314 34 32.85 34v2zm10.3 2.168c.823-1.418 2.178-2.168 4-2.168v-2c-2.458 0-4.513 1.066-5.73 3.165l1.73 1.003zM32.85 48H40v-2h-7.15v2zM40 48h7.8v-2H40v2zm0-1h-1v2.668h2V47h-1zm-1 2.667c0 .679.031 1.508.255 2.258.23.773.7 1.573 1.64 1.99l.81-1.83c-.225-.1-.405-.3-.533-.731-.136-.454-.172-1.033-.172-1.687h-2zm1.895 4.247c.166.074.371.11.448.125.122.023.276.049.428.075.319.054.682.119 1.03.205.36.09.63.186.788.277.2.115-.039.054-.039-.263h2c0-.809-.607-1.266-.967-1.472-.402-.23-.886-.38-1.3-.483a16.003 16.003 0 00-1.176-.236l-.392-.068c-.143-.027-.098-.027-.01.012l-.81 1.828zm2.655.42V59h2v-4.667h-2zM34 38a1 1 0 10-2 0h2zm-2 6a1 1 0 102 0h-2zm-2-4a1 1 0 100 2v-2zm6 2a1 1 0 100-2v2zm-4-4v6h2v-6h-2zm-2 4h6v-2h-6v2zm18-4a1 1 0 11-2 0 1 1 0 012 0zm0 6a1 1 0 11-2 0 1 1 0 012 0zm-3-3a1 1 0 11-2 0 1 1 0 012 0zm6 0a1 1 0 11-2 0 1 1 0 012 0z" fill="#E6E8EF"/></svg>