<svg width="80" height="80" fill="none" xmlns="http://www.w3.org/2000/svg"><path stroke="url(#paint0_linear_829_2693)" stroke-width="2" stroke-linecap="round" d="M17.254 45.553l-2.196 1.842"/><path stroke="url(#paint1_linear_829_2693)" stroke-width="2" stroke-linecap="round" d="M13.866 33.588H11"/><path stroke="url(#paint2_linear_829_2693)" stroke-width="2" stroke-linecap="round" d="M38.196 7.866V5"/><path transform="scale(1 -1) rotate(-40 -33.743 -106.379)" stroke="url(#paint3_linear_829_2693)" stroke-width="2" stroke-linecap="round" d="M1-1h2.866"/><path transform="scale(-1 1) rotate(-60 -1.58 28.896)" stroke="url(#paint4_linear_829_2693)" stroke-width="2" stroke-linecap="round" d="M1-1h2.866"/><path transform="scale(-1 1) rotate(-20 57.577 59.874)" stroke="url(#paint5_linear_829_2693)" stroke-width="2" stroke-linecap="round" d="M1-1h2.866"/><path stroke="url(#paint6_linear_829_2693)" stroke-width="2" stroke-linecap="round" d="M61.216 20.012l2.482-1.433"/><path stroke="url(#paint7_linear_829_2693)" stroke-width="2" stroke-linecap="round" d="M52.82 11.714l1.433-2.482"/><path stroke="url(#paint8_linear_829_2693)" stroke-width="2" stroke-linecap="round" d="M68 33.588h-2.866"/><path d="M30.594 66.9l17.205.015c-.182.849-.458 1.879-.854 2.786-.291.668-.61 1.18-.93 1.505-.3.305-.532.381-.731.38-3.22-.01-5.645-.007-8.147-.003h-.006 0-.008c-1.277.002-2.575.004-4.009.004-.2 0-.432-.078-.734-.385-.322-.328-.64-.841-.932-1.51-.396-.91-.672-1.941-.854-2.791zm-1.606-12.406c.69 1.844 1.092 3.78 1.135 5.215h-.659a.858.858 0 00-.858.858v5.474c0 .192.063.37.17.513.19 1.047.562 2.685 1.214 4.08.655 1.4 1.65 2.669 3.124 2.669h1.704a5.423 5.423 0 00.235.773 5.15 5.15 0 001.04 1.66c.445.475.976.853 1.56 1.112a4.567 4.567 0 001.847.392c.635 0 1.262-.134 1.847-.392a4.806 4.806 0 001.561-1.112 5.151 5.151 0 001.04-1.66 5.343 5.343 0 00.235-.776l1.095.003c1.48.005 2.476-1.27 3.131-2.673.653-1.398 1.024-3.04 1.212-4.082a.855.855 0 00.165-.507v-5.474a.858.858 0 00-.858-.858h-.05c.047-1.3.446-3.228 1.138-5.11.753-2.046 1.734-3.71 2.686-4.466 4.892-3.888 8.033-9.894 8.033-16.633 0-11.727-9.507-21.235-21.235-21.235-11.727 0-21.234 9.508-21.234 21.235 0 6.74 3.14 12.745 8.033 16.633.964.767 1.944 2.371 2.689 4.36zm1.335 10.689v-3.758H48.07v3.758H30.323zm21.31-16.394c-1.333 1.06-2.448 3.098-3.228 5.218-.742 2.016-1.198 4.156-1.244 5.702H31.84c-.042-1.677-.499-3.826-1.245-5.817-.78-2.086-1.896-4.044-3.228-5.103-4.5-3.576-7.385-9.095-7.385-15.289 0-10.78 8.739-19.518 19.518-19.518 10.78 0 19.518 8.739 19.518 19.518 0 6.194-2.884 11.713-7.384 15.29zM36.709 73.59h5.584c-.16.365-.375.694-.636.971a3.088 3.088 0 01-1.003.717 2.85 2.85 0 01-1.153.245 2.85 2.85 0 01-1.153-.245 3.087 3.087 0 01-1.003-.717 3.413 3.413 0 01-.636-.97z" fill="url(#paint9_linear_829_2693)" stroke="url(#paint10_linear_829_2693)" stroke-width=".5"/><defs><linearGradient id="paint0_linear_829_2693" x1="17.287" y1="44.037" x2="15.706" y2="42.865" gradientUnits="userSpaceOnUse"><stop stop-color="#1E74EC"/><stop offset="1" stop-color="#002984"/></linearGradient><linearGradient id="paint1_linear_829_2693" x1="14.866" y1="32.447" x2="14.409" y2="30.533" gradientUnits="userSpaceOnUse"><stop stop-color="#1E74EC"/><stop offset="1" stop-color="#002984"/></linearGradient><linearGradient id="paint2_linear_829_2693" x1="39.337" y1="8.866" x2="41.25" y2="8.408" gradientUnits="userSpaceOnUse"><stop stop-color="#1E74EC"/><stop offset="1" stop-color="#002984"/></linearGradient><linearGradient id="paint3_linear_829_2693" x1="0" y1=".141" x2=".458" y2="2.054" gradientUnits="userSpaceOnUse"><stop stop-color="#1E74EC"/><stop offset="1" stop-color="#002984"/></linearGradient><linearGradient id="paint4_linear_829_2693" x1="0" y1=".141" x2=".458" y2="2.054" gradientUnits="userSpaceOnUse"><stop stop-color="#1E74EC"/><stop offset="1" stop-color="#002984"/></linearGradient><linearGradient id="paint5_linear_829_2693" x1="0" y1=".141" x2=".458" y2="2.054" gradientUnits="userSpaceOnUse"><stop stop-color="#1E74EC"/><stop offset="1" stop-color="#002984"/></linearGradient><linearGradient id="paint6_linear_829_2693" x1="60.92" y1="21.5" x2="62.273" y2="22.929" gradientUnits="userSpaceOnUse"><stop stop-color="#1E74EC"/><stop offset="1" stop-color="#002984"/></linearGradient><linearGradient id="paint7_linear_829_2693" x1="53.308" y1="13.15" x2="55.194" y2="13.711" gradientUnits="userSpaceOnUse"><stop stop-color="#1E74EC"/><stop offset="1" stop-color="#002984"/></linearGradient><linearGradient id="paint8_linear_829_2693" x1="69" y1="32.447" x2="68.543" y2="30.533" gradientUnits="userSpaceOnUse"><stop stop-color="#1E74EC"/><stop offset="1" stop-color="#002984"/></linearGradient><linearGradient id="paint9_linear_829_2693" x1="18.516" y1="21.582" x2="74.089" y2="52.67" gradientUnits="userSpaceOnUse"><stop stop-color="#1E74EC"/><stop offset="1" stop-color="#002984"/></linearGradient><linearGradient id="paint10_linear_829_2693" x1="18.516" y1="21.582" x2="74.089" y2="52.67" gradientUnits="userSpaceOnUse"><stop stop-color="#1E74EC"/><stop offset="1" stop-color="#002984"/></linearGradient></defs></svg>