<svg width="80" height="80" fill="none" xmlns="http://www.w3.org/2000/svg"><path d="M57.667 58.57l.7.715-.7-.714zM45.8 68.786a1 1 0 001.4 1.43l-1.4-1.43zM40 59a1 1 0 100-2v2zm-6.514-15.164a1 1 0 00-1.972.328l1.973-.328zm15 .328a1 1 0 00-1.972-.328l1.972.328zM10 17h61v-2H10v2zm62 1v38h2V18h-2zM9 56V18H7v38h2zm62 1H59.066v2H71v-2zm-14.032.856L45.8 68.786l1.4 1.429 11.166-10.93-1.398-1.429zM40 57H10v2h30v-2zM7 56a3 3 0 003 3v-2a1 1 0 01-1-1H7zm65 0a1 1 0 01-1 1v2a3 3 0 003-3h-2zm-1-39a1 1 0 011 1h2a3 3 0 00-3-3v2zM59.066 57a3 3 0 00-2.099.856l1.4 1.43a1 1 0 01.699-.286v-2zM10 15a3 3 0 00-3 3h2a1 1 0 011-1v-2zm25 18a4 4 0 01-4 4v2a6 6 0 006-6h-2zm-4 4a4 4 0 01-4-4h-2a6 6 0 006 6v-2zm-4-4a4 4 0 014-4v-2a6 6 0 00-6 6h2zm4-4a4 4 0 014 4h2a6 6 0 00-6-6v2zm22 4a4 4 0 01-4 4v2a6 6 0 006-6h-2zm-4 4a4 4 0 01-4-4h-2a6 6 0 006 6v-2zm-4-4a4 4 0 014-4v-2a6 6 0 00-6 6h2zm4-4a4 4 0 014 4h2a6 6 0 00-6-6v2zM32.5 44c-.986.164-.986.165-.986.166v.005l.002.009a1.334 1.334 0 00.017.083 4.416 4.416 0 00.266.773 5.562 5.562 0 001.188 1.678C34.23 47.932 36.376 49 40 49v-2c-3.21 0-4.815-.932-5.613-1.714a3.55 3.55 0 01-.765-1.072 2.402 2.402 0 01-.138-.393v.005l.002.004v.005L32.5 44zm7.5 5c3.624 0 5.77-1.068 7.013-2.286a5.551 5.551 0 001.188-1.678 4.416 4.416 0 00.266-.773 2.433 2.433 0 00.017-.083l.001-.009v-.004l.001-.001c0-.001 0-.002-.986-.166s-.986-.165-.986-.166v-.004l.001-.004.001-.005-.001.006a2.402 2.402 0 01-.137.387 3.563 3.563 0 01-.765 1.072C44.815 46.068 43.211 47 40 47v2z" fill="#E6E8EF"/></svg>