<svg width="66" height="66" fill="none" xmlns="http://www.w3.org/2000/svg"><path d="M58.5 30v-1a1 1 0 00-1 1h1zm6 0h1a1 1 0 00-1-1v1zm0 6v1a1 1 0 001-1h-1zm-6 0h-1a1 1 0 001 1v-1zM1 31v-1a1 1 0 00-1 1h1zm6 0h1a1 1 0 00-1-1v1zm0 6v1a1 1 0 001-1H7zm-6 0H0a1 1 0 001 1v-1zm29 21.5v-1a1 1 0 00-1 1h1zm6 0h1a1 1 0 00-1-1v1zm0 6v1a1 1 0 001-1h-1zm-6 0h-1a1 1 0 001 1v-1zM30 1V0a1 1 0 00-1 1h1zm6 0h1a1 1 0 00-1-1v1zm0 6v1a1 1 0 001-1h-1zm-6 0h-1a1 1 0 001 1V7zm33.5 23v6h2v-6h-2zm-4 6v-6h-2v6h2zM6 31v6h2v-6H6zm-4 6v-6H0v6h2zm28 22.5h6v-2h-6v2zm6 4h-6v2h6v-2zM30 2h6V0h-6v2zm6 4h-6v2h6V6zm28.5 29h-2.653v2H64.5v-2zm-2.653 0H58.5v2h3.347v-2zM58.5 31h3.347v-2H58.5v2zm3.347 0H64.5v-2h-2.653v2zm-.995 4.898c-1.351 13.15-11.805 23.603-24.954 24.955l.204 1.99c14.092-1.45 25.291-12.648 26.74-26.74l-1.99-.205zM35 58.502v3.346h2v-3.346h-2zm0 3.346v2.654h2v-2.654h-2zm-4 2.654v-2.654h-2v2.654h2zm0-2.654v-3.346h-2v3.346h2zM1 32.001h3v-2H1v2zm29.102 28.852C17.277 59.535 7.015 49.556 5.264 36.864l-1.981.273C5.16 50.74 16.153 61.43 29.898 62.842l.204-1.99zM7 36H4.274v2H7v-2zm-2.726 0H1v2h3.274v-2zM4 32h.068v-2H4v2zm.068 0H7v-2H4.068v2zm.998-.932c.926-13.6 11.567-24.536 25.036-25.92l-.204-1.99C15.463 4.643 4.063 16.358 3.07 30.933l1.996.136zM31 7V4.154h-2v2.847h2zm0-2.847V1.001h-2v3.153h2zm4.898.995C49.047 6.5 59.5 16.954 60.852 30.103l1.99-.205C61.393 15.807 50.194 4.608 36.102 3.16l-.204 1.99zM35 1v3.153h2V1.001h-2zm0 3.153V7h2V4.154h-2z" fill="url(#paint0_linear_117_5449)"/><path stroke="url(#paint1_linear_117_5449)" stroke-width="2" stroke-linecap="round" d="M30 46.001h6"/><path d="M33 19L23 35.287l6.667 7.715h6.666L43 35.286 33 19.001zm0 0v13.092" stroke="url(#paint2_linear_117_5449)" stroke-width="2" stroke-linejoin="round"/><circle cx="33" cy="35.001" r="3" stroke="url(#paint3_linear_117_5449)" stroke-width="2"/><defs><linearGradient id="paint0_linear_117_5449" x1="1" y1="9.93" x2="64.5" y2="64.501" gradientUnits="userSpaceOnUse"><stop stop-color="#1E74EC"/><stop offset="1" stop-color="#002984"/></linearGradient><linearGradient id="paint1_linear_117_5449" x1="29" y1="47.141" x2="29.288" y2="49.123" gradientUnits="userSpaceOnUse"><stop stop-color="#1E74EC"/><stop offset="1" stop-color="#002984"/></linearGradient><linearGradient id="paint2_linear_117_5449" x1="23" y1="22.376" x2="45.983" y2="38.835" gradientUnits="userSpaceOnUse"><stop stop-color="#1E74EC"/><stop offset="1" stop-color="#002984"/></linearGradient><linearGradient id="paint3_linear_117_5449" x1="31" y1="33.563" x2="35" y2="37.001" gradientUnits="userSpaceOnUse"><stop stop-color="#1E74EC"/><stop offset="1" stop-color="#002984"/></linearGradient></defs></svg>