<svg width="32" height="32" fill="none" xmlns="http://www.w3.org/2000/svg"><path fill-rule="evenodd" clip-rule="evenodd" d="M16 0C7.167 0 0 7.167 0 16c0 8.832 7.167 16 16 16 8.816 0 16-7.168 16-16 0-8.833-7.184-16-16-16zm10.568 7.375a13.604 13.604 0 013.09 8.503c-.452-.087-4.964-1.007-9.51-.434-.105-.225-.191-.468-.296-.711-.277-.66-.59-1.337-.902-1.979 5.033-2.047 7.323-4.997 7.618-5.38zM16 2.36c3.47 0 6.646 1.301 9.059 3.436-.243.347-2.309 3.106-7.168 4.928-2.238-4.113-4.72-7.48-5.101-8A13.89 13.89 0 0116 2.36zm-5.813 1.284c.364.486 2.793 3.87 5.067 7.896-6.386 1.7-12.026 1.666-12.634 1.666.885-4.235 3.749-7.757 7.567-9.562zM2.325 16.017V15.6c.59.018 7.22.104 14.04-1.943.399.763.763 1.544 1.11 2.325-.174.052-.364.104-.538.156-7.045 2.274-10.794 8.486-11.106 9.007a13.634 13.634 0 01-3.506-9.128zM16 29.674a13.57 13.57 0 01-8.382-2.88c.243-.504 3.02-5.849 10.725-8.538.034-.018.052-.018.087-.035 1.926 4.98 2.707 9.162 2.915 10.36A13.441 13.441 0 0116 29.674zm7.618-2.343c-.139-.833-.867-4.824-2.655-9.735 4.287-.677 8.035.434 8.503.59-.59 3.8-2.776 7.08-5.848 9.145z" fill="#fff"/></svg>