<svg width="32" height="32" fill="none" xmlns="http://www.w3.org/2000/svg"><g clip-path="url(#clip0_117_5587)"><path d="M32 16c0-8.837-7.163-16-16-16S0 7.163 0 16c0 7.985 5.85 14.605 13.5 15.805v-11.18H9.437v-4.626H13.5v-3.524c0-4.01 2.389-6.225 6.043-6.225 1.75 0 3.582.312 3.582.312v3.937h-2.017c-1.988 0-2.608 1.234-2.608 2.5v3h4.438l-.71 4.626H18.5v11.18C26.15 30.605 32 23.985 32 16z" fill="#fff"/></g><defs><clipPath id="clip0_117_5587"><path fill="#fff" d="M0 0h32v32H0z"/></clipPath></defs></svg>