<svg width="32" height="32" fill="none" xmlns="http://www.w3.org/2000/svg"><g clip-path="url(#clip0_117_5586)"><path fill-rule="evenodd" clip-rule="evenodd" d="M22.458 8.73a8.695 8.695 0 00-6.138-2.399c-4.174 0-7.72 2.816-8.983 6.608a9.584 9.584 0 000 6.127h.006c1.27 3.786 4.809 6.602 8.983 6.602 2.155 0 4.004-.551 5.438-1.525v-.004a7.406 7.406 0 003.198-4.862H16.32v-6.161h15.092c.188 1.07.276 2.163.276 3.251 0 4.866-1.74 8.98-4.765 11.767l.003.003C24.274 30.583 20.636 32 16.32 32c-6.05 0-11.582-3.41-14.298-8.813a16.014 16.014 0 010-14.369A15.997 15.997 0 0116.32 0a15.378 15.378 0 0110.706 4.163L22.458 8.73z" fill="#fff"/></g><defs><clipPath id="clip0_117_5586"><path fill="#fff" d="M0 0h32v32H0z"/></clipPath></defs></svg>