<svg width="32" height="32" fill="none" xmlns="http://www.w3.org/2000/svg"><g clip-path="url(#clip0_117_5589)" fill="#fff"><path d="M16 2.88c4.275 0 4.781.02 6.462.095 1.563.068 2.407.33 2.97.55a4.949 4.949 0 011.837 1.193 4.921 4.921 0 011.194 1.838c.218.562.48 1.412.55 2.969.074 1.687.093 2.193.093 6.462 0 4.275-.019 4.781-.094 6.463-.068 1.562-.33 2.406-.55 2.968a4.95 4.95 0 01-1.193 1.838 4.922 4.922 0 01-1.838 1.194c-.562.218-1.412.48-2.969.55-1.687.075-2.193.093-6.462.093-4.275 0-4.781-.018-6.463-.093-1.562-.07-2.406-.332-2.968-.55a4.949 4.949 0 01-1.838-1.194 4.922 4.922 0 01-1.193-1.838c-.22-.562-.482-1.412-.55-2.968-.075-1.688-.094-2.194-.094-6.463 0-4.275.018-4.781.093-6.462.07-1.563.332-2.407.55-2.97a4.948 4.948 0 011.194-1.837A4.921 4.921 0 016.57 3.525c.562-.22 1.412-.482 2.968-.55C11.22 2.9 11.726 2.88 16 2.88zM16 0c-4.344 0-4.887.018-6.594.093-1.7.075-2.869.35-3.881.744-1.056.413-1.95.956-2.838 1.85-.893.888-1.437 1.781-1.85 2.831C.444 6.537.17 7.7.094 9.4.019 11.112 0 11.656 0 16c0 4.343.019 4.887.094 6.593.075 1.7.35 2.869.744 3.881.412 1.057.956 1.95 1.85 2.838a7.822 7.822 0 002.83 1.844c1.02.393 2.182.669 3.882.744 1.706.075 2.25.093 6.594.093 4.343 0 4.887-.018 6.593-.093 1.7-.075 2.87-.35 3.882-.744a7.822 7.822 0 002.831-1.844 7.822 7.822 0 001.844-2.831c.394-1.019.669-2.182.744-3.882.074-1.706.093-2.25.093-6.593 0-4.344-.019-4.888-.094-6.594-.075-1.7-.35-2.869-.743-3.881a7.494 7.494 0 00-1.831-2.844A7.82 7.82 0 0026.48.843C25.462.45 24.3.175 22.6.1 20.887.018 20.344 0 16 0z"/><path d="M16 7.78A8.22 8.22 0 007.781 16 8.22 8.22 0 0016 24.218 8.22 8.22 0 0024.219 16 8.22 8.22 0 0016 7.781zm0 13.55a5.332 5.332 0 11.002-10.663A5.332 5.332 0 0116 21.33zM26.462 7.456a1.92 1.92 0 11-3.838-.001 1.92 1.92 0 013.838 0z"/></g><defs><clipPath id="clip0_117_5589"><path fill="#fff" d="M0 0h32v32H0z"/></clipPath></defs></svg>