<svg width="80" height="80" fill="none" xmlns="http://www.w3.org/2000/svg"><path d="M6 60.451v-.944a.944.944 0 00-.821 1.41L6 60.45zm68 0l.822.466a.944.944 0 00-.822-1.41v.944zm-2.956 5.216v.944c.34 0 .654-.183.821-.479l-.821-.465zm-62.087 0l-.822.465a.944.944 0 00.822.48v-.945zm.534-8.942a.944.944 0 001.889 0H9.49zM10.435 15v-.944a.944.944 0 00-.944.944h.944zm57.652 0h.945a.944.944 0 00-.945-.944V15zm-.944 41.725a.944.944 0 001.889 0h-1.89zM6 61.395h68v-1.889H6v1.89zm67.179-1.41l-2.957 5.216 1.643.931 2.957-5.215-1.643-.932zm-2.135 4.737H8.957v1.89h62.087v-1.89zm-61.266.479l-2.956-5.216-1.643.932 2.956 5.215 1.643-.931zm6.57-44.786h45.826v-1.889H16.348v1.889zm46.36.546v34.274h1.889V20.961h-1.889zm-.534 34.82H16.348v1.889h45.826v-1.89zm-46.36-.546V20.961h-1.889v34.274h1.89zm.534.546a.54.54 0 01-.534-.546h-1.889a2.429 2.429 0 002.423 2.435v-1.89zm46.36-.546a.54.54 0 01-.534.546v1.889a2.429 2.429 0 002.423-2.435h-1.889zm-.534-34.82a.54.54 0 01.534.546h1.889a2.429 2.429 0 00-2.423-2.435v1.889zm-45.826-1.889a2.429 2.429 0 00-2.423 2.435h1.89a.54.54 0 01.533-.546v-1.889zm-4.968 38.2V15H9.49v41.725h1.89zm-.945-40.782h57.652v-1.888H10.435v1.888zM67.143 15v41.725h1.889V15h-1.89z" fill="url(#paint0_linear_829_1471)"/><defs><linearGradient id="paint0_linear_829_1471" x1="6" y1="22.125" x2="56.733" y2="80.638" gradientUnits="userSpaceOnUse"><stop stop-color="#1E74EC"/><stop offset="1" stop-color="#002984"/></linearGradient></defs></svg>