<svg width="32" height="32" fill="none" xmlns="http://www.w3.org/2000/svg"><path d="M16 .64C7.516.64.64 7.517.64 16S7.516 31.36 16 31.36c8.483 0 15.36-6.877 15.36-15.36S24.483.64 16 .64zm-3.76 21.726H9.13v-10.01h3.11v10.01zm-1.575-11.238c-.982 0-1.617-.696-1.617-1.557 0-.878.654-1.554 1.657-1.554 1.003 0 1.618.676 1.637 1.554 0 .86-.634 1.557-1.677 1.557zM23.6 22.366h-3.11V16.82c0-1.291-.452-2.168-1.577-2.168-.859 0-1.37.594-1.595 1.165-.083.203-.104.491-.104.777v5.772h-3.112V15.55c0-1.25-.04-2.295-.082-3.194h2.703l.142 1.39h.063c.41-.652 1.412-1.615 3.09-1.615 2.047 0 3.582 1.37 3.582 4.318v5.918z" fill="#1E74EC"/></svg>