<svg width="51" height="52" fill="none" xmlns="http://www.w3.org/2000/svg"><path d="M36.707 39.293a1 1 0 00-1.414 1.414l1.414-1.414zm3.5-4a1 1 0 00-1.414 1.414l1.414-1.414zM43 22.5C43 33.822 33.822 43 22.5 43v2C34.927 45 45 34.927 45 22.5h-2zM22.5 43C11.178 43 2 33.822 2 22.5H0C0 34.927 10.074 45 22.5 45v-2zM2 22.5C2 11.178 11.178 2 22.5 2V0C10.074 0 0 10.074 0 22.5h2zM22.5 2C33.822 2 43 11.178 43 22.5h2C45 10.074 34.927 0 22.5 0v2zM38 22.5C38 31.06 31.06 38 22.5 38v2C32.165 40 40 32.165 40 22.5h-2zM22.5 38C13.94 38 7 31.06 7 22.5H5C5 32.165 12.835 40 22.5 40v-2zM7 22.5C7 13.94 13.94 7 22.5 7V5C12.835 5 5 12.835 5 22.5h2zM22.5 7C31.06 7 38 13.94 38 22.5h2C40 12.835 32.165 5 22.5 5v2zm12.793 33.707l9.5 9.5 1.414-1.414-9.5-9.5-1.414 1.414zm9.5 9.5c.754.755 1.7.966 2.581.825.847-.134 1.624-.585 2.22-1.14.593-.553 1.086-1.287 1.279-2.087.2-.832.07-1.776-.666-2.512l-1.414 1.414c.146.146.207.33.135.632-.08.334-.322.74-.699 1.09-.375.351-.803.57-1.17.628-.33.053-.606-.018-.852-.264l-1.414 1.414zm5.414-4.914l-10-10-1.414 1.414 10 10 1.414-1.414z" fill="url(#paint0_linear_117_5415)"/><path d="M22 12l.866-.5a1 1 0 00-1.732 0L22 12zm10.392 18v1a1 1 0 00.866-1.5l-.866.5zm-20.784 0l-.866-.5a1 1 0 00.866 1.5v-1zm9.526-17.5l10.392 18 1.732-1-10.392-18-1.732 1zM32.392 29H11.608v2h20.784v-2zm-19.918 1.5l10.392-18-1.732-1-10.392 18 1.732 1z" fill="url(#paint1_linear_117_5415)"/><path d="M22.81 18l-.13 7.254h-1.376L21.174 18h1.636zm-.815 10.276a.97.97 0 01-.706-.288.945.945 0 01-.289-.706.923.923 0 01.289-.696.962.962 0 01.706-.293c.268 0 .5.098.696.293a.958.958 0 01.154 1.198c-.09.15-.209.269-.358.358a.938.938 0 01-.492.134z" fill="url(#paint2_linear_117_5415)"/><defs><linearGradient id="paint0_linear_117_5415" x1="1" y1="7.901" x2="50.056" y2="49.959" gradientUnits="userSpaceOnUse"><stop stop-color="#1E74EC"/><stop offset="1" stop-color="#002984"/></linearGradient><linearGradient id="paint1_linear_117_5415" x1="11.608" y1="14.531" x2="29.814" y2="32.598" gradientUnits="userSpaceOnUse"><stop stop-color="#1E74EC"/><stop offset="1" stop-color="#002984"/></linearGradient><linearGradient id="paint2_linear_117_5415" x1="21" y1="19.445" x2="24.365" y2="20.005" gradientUnits="userSpaceOnUse"><stop stop-color="#1E74EC"/><stop offset="1" stop-color="#002984"/></linearGradient></defs></svg>