<svg width="80" height="80" fill="none" xmlns="http://www.w3.org/2000/svg"><path d="M35.5 49.333l-.864-.503a1 1 0 01.863-.497v1zm8 0v-1a1 1 0 01.861.493l-.862.507zM11.614 34l.972.234-.972-.234zm.15 13l.971-.24-.97.24zM35.5 48.333h8v2h-8v-2zM21.85 55c5.247 0 10.447-2.157 12.787-6.17l1.727 1.007C33.54 54.68 27.515 57 21.85 57v-2zm22.512-6.174c1.148 1.949 3.242 3.5 5.785 4.567C52.677 54.457 55.56 55 58.148 55v2c-2.843 0-5.99-.592-8.778-1.763-2.777-1.166-5.292-2.948-6.733-5.396l1.723-1.015zM21.85 25H40v2H21.85v-2zM40 25h19.8v2H40v-2zm-18.15 2c-2.836 0-4.853.723-6.29 1.923-1.445 1.207-2.413 2.99-2.972 5.311l-1.944-.468c.625-2.596 1.762-4.814 3.633-6.378C16.156 25.818 18.663 25 21.85 25v2zm-9.262 7.234C12.183 35.914 12 37.851 12 40h-2c0-2.253.191-4.356.643-6.234l1.945.468zM11.999 40c0 2.386.226 4.696.737 6.76l-1.941.48c-.56-2.259-.796-4.738-.796-7.24h2zm.737 6.76c.613 2.472 1.62 4.53 3.083 5.962 1.44 1.41 3.384 2.278 6.03 2.278v2c-3.135 0-5.592-1.05-7.43-2.849-1.814-1.776-2.957-4.218-3.624-6.91l1.941-.481zm-1.534-11.85c-.644-.291-1.07-.266-1.36-.155-.31.118-.636.398-.936.927-.616 1.083-.928 2.869-.86 4.782.069 1.907.508 3.716 1.187 4.827.336.552.677.843.97.96.254.102.596.125 1.101-.138l.923 1.774c-.936.487-1.888.573-2.766.221-.839-.335-1.47-1.013-1.935-1.774-.925-1.514-1.403-3.705-1.478-5.798-.075-2.087.242-4.3 1.12-5.843.445-.784 1.082-1.472 1.961-1.807.9-.343 1.889-.255 2.899.203l-.826 1.822zM69.499 40c0-2.152-.172-4.091-.563-5.774l1.948-.452c.436 1.876.615 3.976.615 6.226h-2zm-.563-5.774c-.54-2.325-1.48-4.104-2.898-5.308C64.63 27.722 62.636 27 59.8 27v-2c3.186 0 5.678.819 7.533 2.393 1.847 1.568 2.95 3.788 3.552 6.381l-1.948.452zM58.15 55c5.225 0 8.692-3.424 10.32-8.316l1.899.632C68.556 52.755 64.488 57 58.149 57v-2zm10.32-8.316c.683-2.049 1.03-4.336 1.03-6.684h2c0 2.54-.374 5.042-1.131 7.316l-1.898-.632zm.95-13.555c1.043-.588 2.082-.795 3.052-.516.96.276 1.655.972 2.138 1.782.944 1.585 1.278 3.938 1.18 6.149-.097 2.217-.638 4.551-1.692 6.11-.533.789-1.257 1.463-2.203 1.733-.972.278-1.994.075-2.995-.532l1.04-1.71c.644.392 1.092.409 1.407.32.34-.098.72-.377 1.094-.931.763-1.13 1.263-3.045 1.352-5.078.09-2.04-.245-3.936-.901-5.038-.319-.534-.656-.792-.973-.883-.307-.088-.787-.076-1.516.336l-.983-1.742z" fill="#E6E8EF"/><path d="M25 23c6.25-6.667 23.75-6.667 30 0" stroke="#E6E8EF" stroke-width="2" stroke-linecap="round"/><path d="M65.314 18.879a1 1 0 001.414-1.415l-1.414 1.415zm-.59-1.575l.382-.923-.383.924zm-3.062 0l.382.924-.382-.924zm-2.005.16a1 1 0 101.414 1.415l-1.414-1.415zm8.485-1.414a1 1 0 001.414-1.414l-1.414 1.414zm-1.888-2.441l.382-.924-.382.924zm-6.123 0l.383.924-.383-.924zm-3.303 1.027a1 1 0 001.415 1.414l-1.415-1.414zm14.85-1.121a1 1 0 001.414-1.415l-1.414 1.415zm-3.51-3.525l.382-.924-.383.924zm-9.95 0l.382.923-.383-.923zm-4.925 2.11a1 1 0 001.414 1.415L53.293 12.1zm13.435 5.365a5 5 0 00-1.622-1.084l-.766 1.847c.364.151.695.372.974.65l1.414-1.413zm-1.622-1.084A5 5 0 0063.192 16v2c.394 0 .785.078 1.148.228l.766-1.847zM63.192 16a5 5 0 00-1.913.38l.765 1.848A3 3 0 0163.192 18v-2zm-1.913.38a4.999 4.999 0 00-1.622 1.085l1.414 1.414c.279-.279.61-.5.973-.65l-.765-1.848zm8.277-1.744a9 9 0 00-2.92-1.95l-.765 1.847a7 7 0 012.271 1.517l1.414-1.414zm-2.92-1.95A9 9 0 0063.192 12v2c.92 0 1.83.181 2.68.533l.764-1.848zM63.192 12a9 9 0 00-3.444.685l.766 1.848A7.001 7.001 0 0163.192 14v-2zm-3.444.685a9.001 9.001 0 00-2.92 1.951l1.415 1.414a6.999 6.999 0 012.27-1.517l-.765-1.848zm13.344-.585a14 14 0 00-4.542-3.034l-.765 1.847a12 12 0 013.893 2.602l1.414-1.415zM68.55 9.067A14 14 0 0063.192 8v2a12 12 0 014.593.913l.765-1.847zM63.192 8a14 14 0 00-5.357 1.066l.765 1.847A12 12 0 0163.192 10V8zm-5.357 1.066a14 14 0 00-4.542 3.034l1.414 1.415a12 12 0 013.893-2.602l-.765-1.847zM33.572 44.6c-.192 0-.342-.048-.45-.144a.818.818 0 01-.234-.36L29.036 32.54a.442.442 0 01-.036-.162.366.366 0 01.378-.378h1.584c.168 0 .294.048.378.144a.551.551 0 01.18.252l3.042 9.27 3.024-9.27a.822.822 0 01.18-.252.535.535 0 01.396-.144h1.584c.096 0 .18.036.252.108a.341.341 0 01.126.27.442.442 0 01-.036.162l-3.852 11.556a.818.818 0 01-.234.36c-.108.096-.258.144-.45.144h-1.98zm8.258 0a.417.417 0 01-.305-.126.417.417 0 01-.126-.306V32.45c0-.132.042-.24.126-.324A.417.417 0 0141.83 32h4.662c1.452 0 2.598.336 3.438 1.008.84.672 1.26 1.65 1.26 2.934 0 .888-.222 1.626-.666 2.214-.432.588-1.014 1.014-1.746 1.278l2.628 4.59a.448.448 0 01.054.198.341.341 0 01-.126.27.345.345 0 01-.252.108h-1.638c-.204 0-.36-.054-.468-.162a1.485 1.485 0 01-.252-.324l-2.322-4.266H43.9v4.32c0 .12-.042.222-.126.306a.381.381 0 01-.306.126H41.83zm2.07-6.786h2.539c.732 0 1.278-.162 1.638-.486.36-.336.54-.804.54-1.404 0-.6-.18-1.068-.54-1.404-.348-.348-.894-.522-1.638-.522H43.9v3.816z" fill="#E6E8EF"/></svg>