<svg width="80" height="80" fill="none" xmlns="http://www.w3.org/2000/svg"><path d="M26.015 69.886h-.98v.98h.98v-.98zm28.847 0v.98h.892l.083-.889-.975-.091zm20.496-4.627v.979h.892l.083-.888-.975-.091zM4 65.258h-.979v.979h.98v-.98zm50.956 0l-.978.046.978-.047zM31.742 53.935l.267.942-.267-.942zm6.336-36.848l.932.303-.932-.303zm-6.442.125l-.575.793.575-.793zm5.168 3.798l-.931-.303.93.303zm-.018-.056l.575-.793-.575.793zm-1.872 6.165l-.575-.792.575.792zm-.077-.056l.931.303-.931-.303zm5.285-3.685l.576-.792-.575.792zm-.059 0l.576.792-.576-.792zm5.286 3.685l.931-.302-.931.302zm-.077.056l-.576.793.576-.793zM43.4 20.955l-.575-.793.575.793zm-.018.056l-.931.302.931-.302zm5.168-3.798l.575.793-.575-.793zm-6.442-.125l-.932.303.932-.303zm-1.967-6.054l.931-.302-.931.303zm-.096 0l-.931-.302.931.303zm-14.03 59.831h28.847v-1.959H26.015v1.96zm50.318-5.515c.26-2.767.227-6.946-.752-10.475-.49-1.766-1.237-3.445-2.372-4.698-1.161-1.282-2.71-2.093-4.683-2.093v1.958c1.367 0 2.405.538 3.231 1.45.852.94 1.49 2.297 1.936 3.906.893 3.219.937 7.138.69 9.77l1.95.182zm-7.807-17.266H54.103v1.958h14.423v-1.958zm-42.511 0H11.592v1.958h14.423v-1.958zm-14.423 0c-2.157 0-3.833.767-5.087 2.042-1.227 1.246-2 2.924-2.498 4.686-.993 3.509-.986 7.698-.986 10.447H4.98c0-2.805.006-6.713.912-9.914.45-1.593 1.1-2.923 2.009-3.845.88-.895 2.051-1.458 3.69-1.458v-1.958zm43.364 18.154h20.402v-1.959H54.956v1.959zm.88 3.74a34.51 34.51 0 00.099-4.766l-1.957.093c.08 1.658.027 3.23-.091 4.49l1.95.182zm.099-4.766c-.132-2.732-.607-5.776-1.756-8.17-1.162-2.422-3.106-4.331-6.15-4.331v1.959c2.024 0 3.414 1.197 4.384 3.22.984 2.05 1.439 4.791 1.565 7.415l1.956-.094zm-1.833-17.128c-1.84 0-3.34.559-4.53 1.533-1.172.96-1.985 2.277-2.555 3.712l1.82.723c.492-1.237 1.14-2.234 1.977-2.92.82-.671 1.875-1.09 3.288-1.09v-1.958zM48.03 52.71h-.103v1.959h.102V52.71zm-.103 0h-14.32v1.959h14.32V52.71zm-15.265.888c-1.081-2.952-3.106-5.515-6.647-5.515v1.958c2.325 0 3.844 1.599 4.808 4.23l1.839-.673zm.944-.888c-.763 0-1.473.096-2.13.282l.533 1.885c.47-.133 1-.208 1.597-.208V52.71zm-2.13.282c-2.512.712-4.025 2.656-4.93 4.901-.901 2.234-1.258 4.89-1.406 7.305l1.955.119c.143-2.346.485-4.752 1.267-6.691.777-1.927 1.931-3.263 3.647-3.75l-.534-1.884zM25.14 65.2c-.105 1.723-.104 3.365-.104 4.687h1.958c0-1.327 0-2.912.101-4.568l-1.955-.12zM4 66.238h22.118v-1.959H4v1.959zm21.672-29.53c0 4.511-3.692 8.183-8.264 8.183v1.959c5.638 0 10.223-4.533 10.223-10.142h-1.959zm-8.264 8.183c-4.572 0-8.264-3.672-8.264-8.183H7.186c0 5.61 4.585 10.142 10.222 10.142v-1.96zm-8.264-8.183c0-4.51 3.692-8.182 8.264-8.182v-1.959c-5.637 0-10.222 4.532-10.222 10.141h1.958zm8.264-8.182c4.572 0 8.264 3.671 8.264 8.182h1.959c0-5.609-4.585-10.141-10.223-10.141v1.959zM48.78 41.289c0 4.511-3.691 8.183-8.264 8.183v1.959c5.638 0 10.223-4.533 10.223-10.142H48.78zm-8.264 8.183c-4.572 0-8.264-3.672-8.264-8.183h-1.958c0 5.61 4.585 10.142 10.222 10.142v-1.959zm-8.264-8.183c0-4.51 3.692-8.182 8.264-8.182v-1.959c-5.637 0-10.222 4.532-10.222 10.141h1.958zm8.264-8.182c4.573 0 8.264 3.671 8.264 8.182h1.959c0-5.609-4.585-10.141-10.223-10.141v1.959zm29.832 3.601c0 4.511-3.692 8.183-8.264 8.183v1.959c5.638 0 10.222-4.533 10.222-10.142h-1.958zm-8.264 8.183c-4.572 0-8.264-3.672-8.264-8.183h-1.959c0 5.61 4.585 10.142 10.223 10.142v-1.96zm-8.264-8.183c0-4.51 3.692-8.182 8.264-8.182v-1.959c-5.638 0-10.223 4.532-10.223 10.141h1.959zm8.264-8.182c4.572 0 8.264 3.671 8.264 8.182h1.959c0-5.609-4.585-10.141-10.223-10.141v1.959zM39.209 11.337l1.967 6.054 1.863-.606-1.967-6.053-1.863.605zm2.946 6.765h6.365v-1.959h-6.365v1.959zm5.82-1.68l-5.15 3.74 1.151 1.585 5.15-3.741-1.152-1.585zm-5.524 4.891l1.967 6.054 1.862-.605-1.967-6.054-1.862.605zm3.396 5.015l-5.149-3.741-1.151 1.584 5.15 3.742 1.15-1.585zm-6.36-3.741l-5.148 3.74 1.15 1.585 5.15-3.74-1.151-1.585zm-3.719 4.78l1.967-6.054-1.862-.605-1.967 6.054 1.862.605zm1.593-7.205l-5.15-3.74-1.15 1.584 5.149 3.74 1.151-1.584zm-5.695-2.06h6.365v-1.959h-6.365v1.959zm7.344-.711l1.967-6.054-1.863-.605-1.967 6.053 1.863.606zm-.98.711c.447 0 .842-.287.98-.711l-1.863-.606a.93.93 0 01.884-.642v1.959zm-5.818-1.68c.728.528.354 1.68-.546 1.68v-1.959c-.997 0-1.412 1.276-.605 1.863l1.15-1.585zm5.523 4.891a1.03 1.03 0 00-.374-1.15l-1.151 1.584a.93.93 0 01-.337-1.039l1.862.605zm-3.396 5.015c.728-.53 1.708.183 1.43 1.039l-1.863-.605c-.309.948.777 1.737 1.584 1.15l-1.151-1.584zm6.36-3.741a1.03 1.03 0 00-1.211 0l1.151 1.584a.929.929 0 01-1.092 0l1.151-1.584zm3.719 4.78c-.279-.856.701-1.568 1.43-1.04l-1.152 1.585c.807.587 1.893-.202 1.584-1.15l-1.862.605zm-1.593-7.205a1.03 1.03 0 00-.374 1.151l1.862-.605a.93.93 0 01-.337 1.039l-1.151-1.585zm5.695-2.06c-.9 0-1.274-1.152-.546-1.68l1.151 1.584c.807-.587.392-1.863-.605-1.863v1.959zm-7.344-.711c.138.424.533.711.98.711v-1.959a.93.93 0 01.883.642l-1.863.606zm-.104-6.66c-.308-.948-1.65-.948-1.958 0l1.863.606c-.278.856-1.49.856-1.768 0l1.863-.605z" fill="url(#paint0_linear_829_2741)"/><defs><linearGradient id="paint0_linear_829_2741" x1="4" y1="19.281" x2="63.51" y2="81.37" gradientUnits="userSpaceOnUse"><stop stop-color="#1E74EC"/><stop offset="1" stop-color="#002984"/></linearGradient></defs></svg>