<svg width="80" height="80" fill="none" xmlns="http://www.w3.org/2000/svg"><path d="M9 50a1 1 0 100 2v-2zm7 2a1 1 0 100-2v2zm16-2a1 1 0 100 2v-2zm7 2a1 1 0 100-2v2zm16-2a1 1 0 100 2v-2zm7 2a1 1 0 100-2v2zM32 10a1 1 0 100 2v-2zm7 2a1 1 0 100-2v2zM18 68a1 1 0 100 2v-2zm7 2a1 1 0 100-2v2zm16-2a1 1 0 100 2v-2zm7 2a1 1 0 100-2v2zm16-2a1 1 0 100 2v-2zm7 2a1 1 0 100-2v2zM41 28a1 1 0 100 2v-2zm7 2a1 1 0 100-2v2zm-7 4a1 1 0 10-2 0h2zm-24 5v-1a1 1 0 00-1 1h1zm46 0h1a1 1 0 00-1-1v1zm-47 7a1 1 0 102 0h-2zm23 0a1 1 0 102 0h-2zm23 0a1 1 0 102 0h-2zm-52 1h14v-2H10v2zm14 0v26h2V47h-2zm0 26H10v2h14v-2zm-14 0V47H8v26h2zm0 0H8a2 2 0 002 2v-2zm14 0v2a2 2 0 002-2h-2zm0-26h2a2 2 0 00-2-2v2zm-14-2a2 2 0 00-2 2h2v-2zm23 2h14v-2H33v2zm14 0v26h2V47h-2zm0 26H33v2h14v-2zm-14 0V47h-2v26h2zm0 0h-2a2 2 0 002 2v-2zm14 0v2a2 2 0 002-2h-2zm0-26h2a2 2 0 00-2-2v2zm-14-2a2 2 0 00-2 2h2v-2zm23 2h14v-2H56v2zm14 0v26h2V47h-2zm0 26H56v2h14v-2zm-14 0V47h-2v26h2zm0 0h-2a2 2 0 002 2v-2zm14 0v2a2 2 0 002-2h-2zm0-26h2a2 2 0 00-2-2v2zm-14-2a2 2 0 00-2 2h2v-2zM33 7h14V5H33v2zm14 0v26h2V7h-2zm0 26H33v2h14v-2zm-14 0V7h-2v26h2zm0 0h-2a2 2 0 002 2v-2zm14 0v2a2 2 0 002-2h-2zm0-26h2a2 2 0 00-2-2v2zM33 5a2 2 0 00-2 2h2V5zM9 52h7v-2H9v2zm23 0h7v-2h-7v2zm23 0h7v-2h-7v2zM32 12h7v-2h-7v2zM18 70h7v-2h-7v2zm23 0h7v-2h-7v2zm23 0h7v-2h-7v2zM41 30h7v-2h-7v2zm-2 4v5h2v-5h-2zm-22 6h46v-2H17v2zm-1-1v7h2v-7h-2zm23 0v7h2v-7h-2zm23 0v7h2v-7h-2z" fill="url(#paint0_linear_117_5443)"/><defs><linearGradient id="paint0_linear_117_5443" x1="9" y1="15.563" x2="75.786" y2="67.893" gradientUnits="userSpaceOnUse"><stop stop-color="#1E74EC"/><stop offset="1" stop-color="#002984"/></linearGradient></defs></svg>