<svg width="80" height="80" fill="none" xmlns="http://www.w3.org/2000/svg"><mask id="path-1-inside-1_117_5436" fill="#fff"><path d="M8.75 54.698c0-.345.28-.625.625-.625h11.57c.346 0 .626.28.626.625v19.678c0 .345-.28.625-.625.625H9.375a.625.625 0 01-.625-.625V54.698zm16.026-11.269c0-.345.28-.625.625-.625h11.57c.346 0 .625.28.625.625v30.947c0 .345-.28.625-.625.625h-11.57a.625.625 0 01-.625-.625V43.429zM42.404 32.16c0-.345.28-.625.625-.625h11.57c.346 0 .626.28.626.625v42.216c0 .345-.28.625-.626.625H43.03a.625.625 0 01-.625-.625V32.16zM58.43 22.5c0-.344.28-.624.625-.624h11.57c.345 0 .625.28.625.625v51.875c0 .345-.28.625-.625.625h-11.57a.625.625 0 01-.625-.625V22.5z"/></mask><path d="M9.375 56.073h11.57v-4H9.376v4zm10.196-1.375v19.678h4V54.698h-4zM20.946 73H9.375v4h11.57v-4zM10.75 74.376V54.698h-4v19.678h4zM25.4 44.804h11.571v-4h-11.57v4zm10.196-1.375v30.947h4V43.429h-4zM36.971 73h-11.57v4h11.57v-4zm-10.195 1.375V43.429h-4v30.947h4zm16.253-40.841h11.57v-4H43.03v4zm10.195-1.375v42.216h4V32.16h-4zM54.6 73H43.029v4h11.57v-4zm-10.196 1.376V32.16h-4v42.216h4zm14.65-50.5h11.571v-4h-11.57v4zM69.25 22.5v51.875h4V22.5h-4zM70.625 73h-11.57v4h11.57v-4zM60.43 74.376V22.5h-4v51.875h4zM59.055 73c.76 0 1.375.615 1.375 1.375h-4A2.625 2.625 0 0059.055 77v-4zm10.195 1.375c0-.76.616-1.375 1.375-1.375v4a2.625 2.625 0 002.625-2.625h-4zm1.375-50.5c-.76 0-1.375-.616-1.375-1.375h4a2.625 2.625 0 00-2.625-2.625v4zm-11.57-4A2.625 2.625 0 0056.43 22.5h4c0 .76-.616 1.375-1.375 1.375v-4zM43.029 73c.76 0 1.375.615 1.375 1.375h-4A2.625 2.625 0 0043.029 77v-4zm10.195 1.375c0-.76.616-1.375 1.376-1.375v4a2.625 2.625 0 002.624-2.625h-4zm1.376-40.84c-.76 0-1.376-.616-1.376-1.375h4a2.625 2.625 0 00-2.624-2.625v4zm-11.571-4a2.625 2.625 0 00-2.625 2.625h4c0 .76-.616 1.375-1.375 1.375v-4zM25.401 73c.76 0 1.375.615 1.375 1.375h-4A2.625 2.625 0 0025.4 77v-4zm10.195 1.375c0-.76.616-1.375 1.375-1.375v4a2.625 2.625 0 002.625-2.625h-4zm1.375-29.572c-.76 0-1.375-.616-1.375-1.375h4a2.625 2.625 0 00-2.625-2.625v4zm-11.57-4a2.625 2.625 0 00-2.625 2.625h4c0 .76-.616 1.375-1.375 1.375v-4zM9.375 73c.76 0 1.375.615 1.375 1.375h-4A2.625 2.625 0 009.375 77v-4zm10.196 1.375c0-.76.615-1.375 1.375-1.375v4a2.625 2.625 0 002.625-2.625h-4zm1.375-18.303c-.76 0-1.375-.616-1.375-1.375h4a2.625 2.625 0 00-2.625-2.625v4zm-11.571-4a2.625 2.625 0 00-2.625 2.625h4c0 .76-.616 1.375-1.375 1.375v-4z" fill="url(#paint0_linear_117_5436)" mask="url(#path-1-inside-1_117_5436)"/><path d="M9.375 39.376l52.5-31.977m0 0l-.807 6.395m.807-6.395l-6.461-2.398" stroke="url(#paint1_linear_117_5436)" stroke-width="2" stroke-linecap="round" stroke-linejoin="round"/><defs><linearGradient id="paint0_linear_117_5436" x1="8.75" y1="29.346" x2="62.483" y2="83.672" gradientUnits="userSpaceOnUse"><stop stop-color="#1E74EC"/><stop offset="1" stop-color="#002984"/></linearGradient><linearGradient id="paint1_linear_117_5436" x1="9.375" y1="9.835" x2="42.898" y2="53.834" gradientUnits="userSpaceOnUse"><stop stop-color="#1E74EC"/><stop offset="1" stop-color="#002984"/></linearGradient></defs></svg>