<svg width="42" height="62" fill="none" xmlns="http://www.w3.org/2000/svg"><path d="M1 1V0a1 1 0 00-1 1h1zm40 0h1a1 1 0 00-1-1v1zm0 60v1a1 1 0 001-1h-1zM1 61H0a1 1 0 001 1v-1zm6-40v-1a1 1 0 00-1 1h1zm28 0h1a1 1 0 00-1-1v1zm0 14v1a1 1 0 001-1h-1zM7 35H6a1 1 0 001 1v-1zm0 6v-1a1 1 0 00-1 1h1zm28 0h1a1 1 0 00-1-1v1zm0 14v1a1 1 0 001-1h-1zM7 55H6a1 1 0 001 1v-1zM1 2h40V0H1v2zm39-1v60h2V1h-2zm1 59H1v2h40v-2zM2 61V1H0v60h2zm32-50a3 3 0 01-3 3v2a5 5 0 005-5h-2zm-3 3a3 3 0 01-3-3h-2a5 5 0 005 5v-2zm-3-3a3 3 0 013-3V6a5 5 0 00-5 5h2zm3-3a3 3 0 013 3h2a5 5 0 00-5-5v2zm-1 19a1 1 0 01-1 1v2a3 3 0 003-3h-2zm-1 1a1 1 0 01-1-1h-2a3 3 0 003 3v-2zm-1-1a1 1 0 011-1v-2a3 3 0 00-3 3h2zm1-1a1 1 0 011 1h2a3 3 0 00-3-3v2zM7 22h28v-2H7v2zm27-1v14h2V21h-2zm1 13H7v2h28v-2zM8 35V21H6v14h2zm22 12a1 1 0 01-1 1v2a3 3 0 003-3h-2zm-1 1a1 1 0 01-1-1h-2a3 3 0 003 3v-2zm-1-1a1 1 0 011-1v-2a3 3 0 00-3 3h2zm1-1a1 1 0 011 1h2a3 3 0 00-3-3v2zM7 42h28v-2H7v2zm27-1v14h2V41h-2zm1 13H7v2h28v-2zM8 55V41H6v14h2z" fill="#E6E8EF"/></svg>