<svg width="72" height="76" fill="none" xmlns="http://www.w3.org/2000/svg"><path fill-rule="evenodd" clip-rule="evenodd" d="M36.982 12.725A6.402 6.402 0 0036 0a6.4 6.4 0 00-.982 12.725V17.6c0 .063.006.125.018.184L17.96 26.322a.982.982 0 00-.543.878v9.418h-4.693A6.402 6.402 0 000 37.6a6.4 6.4 0 0012.725.982h4.693V48c0 .359.196.69.512.862l17.11 9.332a.987.987 0 00-.022.206v4.875A6.402 6.402 0 0036 76a6.4 6.4 0 00.982-12.725V58.4c0-.07-.007-.14-.022-.206l17.11-9.332a.982.982 0 00.512-.862v-9.418h4.693A6.402 6.402 0 0072 37.6a6.4 6.4 0 00-12.725-.982h-4.693V27.2a.982.982 0 00-.543-.878l-17.074-8.537a.989.989 0 00.017-.185v-4.875zM40.437 6.4a4.436 4.436 0 11-8.873 0 4.436 4.436 0 018.873 0zM19.382 47.417V28.788l15.636 7.818v19.34l-15.636-8.53zm17.6 8.529l15.636-8.53V28.789l-15.636 7.818v19.34zM36 34.902L51.404 27.2 36 19.497 20.595 27.2 36 34.902zM6.4 42.036a4.436 4.436 0 100-8.873 4.436 4.436 0 000 8.873zm59.2 0a4.436 4.436 0 100-8.873 4.436 4.436 0 000 8.873zM40.437 69.6a4.436 4.436 0 11-8.873 0 4.436 4.436 0 018.873 0z" fill="url(#paint0_linear_829_1088)"/><defs><linearGradient id="paint0_linear_829_1088" x1="0" y1="10.688" x2="75.278" y2="71.974" gradientUnits="userSpaceOnUse"><stop stop-color="#1E74EC"/><stop offset="1" stop-color="#002984"/></linearGradient></defs></svg>