<svg width="80" height="80" fill="none" xmlns="http://www.w3.org/2000/svg"><mask id="path-1-inside-1_1096_2441" fill="#fff"><path d="M60 70H20V10h20l20 21.198V70z"/></mask><path d="M40 31.198h-1a1 1 0 001 1v-1zM39 10v21.198h2V10h-2zm1 22.198h20v-2H40v2zM60 70v2a2 2 0 002-2h-2zm-40 0h-2a2 2 0 002 2v-2zm0-60V8a2 2 0 00-2 2h2zm20 0l1.455-1.373A2 2 0 0040 8v2zm20 21.198h2a2 2 0 00-.545-1.373L60 31.198zM60 68H20v4h40v-4zm-38 2V10h-4v60h4zm-2-58h20V8H20v4zm38 19.198V70h4V31.198h-4zm3.455-1.373l-20-21.198-2.91 2.745 20 21.199 2.91-2.746z" fill="#E6E8EF" mask="url(#path-1-inside-1_1096_2441)"/><path d="M31 41a1 1 0 100 2v-2zm22 2a1 1 0 100-2v2zm-22 6a1 1 0 100 2v-2zm22 2a1 1 0 100-2v2zm-22 6a1 1 0 100 2v-2zm22 2a1 1 0 100-2v2zM31 43h22v-2H31v2zm0 8h22v-2H31v2zm0 8h22v-2H31v2z" fill="#E6E8EF"/><circle cx="27" cy="42" r="1" fill="#E6E8EF"/><circle cx="27" cy="50" r="1" fill="#E6E8EF"/><circle cx="27" cy="58" r="1" fill="#E6E8EF"/></svg>