<svg width="52" height="53" fill="none" xmlns="http://www.w3.org/2000/svg"><path d="M31 22l-.65.76a1 1 0 001.357-.052L31 22zm11-11l.707.708A1 1 0 0043 11h-1zm0-4.5l-.294-.955A1 1 0 0041 6.5h1zm6.5-2l.707-.707a1 1 0 00-1-.248l.293.955zM51 7l.956.295a1 1 0 00-.249-1.002L51 7zm-2 6.5v1a1 1 0 00.956-.705L49 13.5zm-5 0v-1a1 1 0 00-.723.31l.723.69zm-10.5 11l-.723-.69a1 1 0 00.016 1.398l.707-.707zm3 3l.715.7a1 1 0 00-.008-1.407l-.707.707zM13.5 51l.344.94a1 1 0 00.37-.24L13.5 51zm-5 .5l-.336.942.336-.941zM4 47l-.948.317L4 47zm0-4.5l-.707-.707a1 1 0 00-.274.515l.981.193zM27.5 19l.651-.759a1 1 0 00-1.358.052L27.5 19zM8 15.5l-.678.735A1 1 0 008 16.5v-1zm7.5 0v1a1 1 0 001-1h-1zm0-7h1a1 1 0 00-.24-.65l-.76.65zm-6-7v-1a1 1 0 00-.759 1.651l.76-.65zm7.5 0l.507-.862A1 1 0 0017 .5v1zm8.5 8l.924-.383-.924.383zm0 9l-.973-.228a1 1 0 00.418 1.06l.555-.832zm1.5 1l.707.708a1 1 0 00-.152-1.54L27 19.5zM19.5 27l-.707.708a1 1 0 001.414 0L19.5 27zm-2-2l.707-.707a1 1 0 00-.875-.278L17.5 25zm-7 0l-.273.962L10.5 25zm-9-9.5h-1a1 1 0 00.107.45l.893-.45zm0-6l.679-.734A1 1 0 00.5 9.5h1zm27 26.5l-.73-.684a1 1 0 00.023 1.392L28.5 36zM42 49.5l-.707.708a1 1 0 00.426.252L42 49.5zm7.5-.5l.715.7-.715-.7zm1-6.5l.986-.168a1 1 0 00-.279-.539l-.707.708zM36 28l.707-.707a1 1 0 00-1.436.024L36 28zM7.793 42.793a1 1 0 101.414 1.415l-1.414-1.415zm19.414-16.585a1 1 0 00-1.414-1.415l1.414 1.415zM11.293 46.293a1 1 0 001.414 1.415l-1.414-1.415zm19.414-16.585a1 1 0 00-1.414-1.415l1.414 1.415zm1-7l11-11-1.414-1.415-11 11 1.414 1.415zM43 11V6.5h-2V11h2zm-.706-3.545l6.5-2-.588-1.911-6.5 2 .588 1.911zm5.5-2.248l2.5 2.5 1.413-1.415-2.5-2.5-1.414 1.415zm2.25 1.498l-2 6.5 1.912.589 2-6.5-1.912-.589zM49 12.501h-5v2h5v-2zm-5.723.309l-10.5 11 1.447 1.381 10.5-11-1.447-1.381zM32.793 25.208l3 3 1.414-1.415-3-3-1.414 1.415zm2.992 1.593l-23 23.5 1.43 1.399 23-23.5-1.43-1.399zM13.5 51.001l-.343-.94-.004.002-.02.007a8.082 8.082 0 01-.445.144c-.303.091-.725.207-1.197.303-1.002.203-2.014.27-2.654.042l-.673 1.883c1.198.428 2.686.246 3.725.035a15.524 15.524 0 001.94-.532l.01-.004a.09.09 0 00.003 0l.001-.001L13.5 51zm-4.663-.442c-1.073-.383-1.863-.852-2.467-1.449-.6-.594-1.067-1.365-1.421-2.426l-1.897.633c.432 1.296 1.045 2.358 1.912 3.215.865.855 1.932 1.457 3.2 1.91l.673-1.883zm-3.888-3.875c-.21-.632-.228-1.586-.16-2.483a15.355 15.355 0 01.193-1.509L4 42.502l-.981-.193v.004l-.003.009a5.01 5.01 0 00-.024.132 17.356 17.356 0 00-.198 1.596c-.07.937-.087 2.233.258 3.268l1.897-.633zm-.242-3.476l23.5-23.5-1.414-1.415-23.5 23.5 1.414 1.415zM26.85 19.76l3.5 3 1.302-1.519-3.5-3-1.302 1.519zM8 16.5h7.5v-2H8v2zm8.5-1v-7h-2v7h2zm-.24-7.65l-6-7-1.52 1.3 6 7 1.518-1.301zM9.5 2.5H17v-2H9.5v2zm7.5-1l-.507.862.003.002.013.008a11.508 11.508 0 01.263.16 37.412 37.412 0 013.243 2.267c1.915 1.5 3.846 3.362 4.562 5.085l1.847-.767c-.934-2.248-3.252-4.386-5.175-5.893A39.427 39.427 0 0017.594.69a10.77 10.77 0 00-.063-.037l-.017-.01a.872.872 0 00-.006-.004L17 1.5zm7.577 8.384c.573 1.381.6 3.419.433 5.243a26.929 26.929 0 01-.471 3.091l-.01.043-.002.01v.002l.973.227.974.228v-.002l.002-.004.003-.016a14.316 14.316 0 00.055-.254 28.901 28.901 0 00.467-3.143c.17-1.865.197-4.327-.577-6.192l-1.847.767zm.368 9.448l1.5 1 1.11-1.664-1.5-1-1.11 1.665zm1.348-.539l-7.5 7.5 1.414 1.415 7.5-7.5-1.414-1.415zm-6.086 7.5l-2-2-1.414 1.415 2 2 1.414-1.415zM17.5 25l-.168-.985h-.001a.24.24 0 00-.008.001l-.032.006-.134.02a27.858 27.858 0 01-2.236.24c-1.403.093-3.008.08-4.148-.244l-.546 1.924c1.49.423 3.386.41 4.825.316a29.956 29.956 0 002.6-.289l.011-.002h.005L17.5 25zm-6.727-.962c-1.03-.292-2.075-.956-3.088-1.858-1.007-.896-1.933-1.983-2.726-3.05a32.286 32.286 0 01-2.525-4 11.873 11.873 0 01-.032-.062l-.007-.015-.002-.003-.893.45-.893.45v.002l.002.001.003.006a5.701 5.701 0 00.048.095c.034.064.082.156.146.273a34.29 34.29 0 002.548 3.997c.843 1.133 1.86 2.334 3.001 3.35 1.135 1.01 2.444 1.883 3.872 2.288l.546-1.924zM2.5 15.501v-6h-2v6h2zM.822 10.235l6.5 6 1.357-1.47-6.5-6-1.357 1.47zm26.971 26.473l13.5 13.5 1.414-1.415-13.5-13.5-1.414 1.415zM42 49.5l-.28.96h.002l.004.001.016.005.053.015.193.051a17.919 17.919 0 002.908.5c.858.073 1.827.08 2.745-.086.91-.165 1.861-.52 2.574-1.247l-1.43-1.4c-.314.322-.814.555-1.502.68-.68.123-1.458.125-2.219.06a15.928 15.928 0 01-2.735-.486l-.039-.01-.008-.003h-.001l-.28.96zm8.215.2c.618-.632.967-1.454 1.168-2.242.204-.796.277-1.635.291-2.378a16.56 16.56 0 00-.185-2.729l-.002-.013v-.006h-.001l-.986.168-.986.168v-.001l.002.007a9.268 9.268 0 01.025.167 14.589 14.589 0 01.134 2.202c-.012.653-.077 1.324-.23 1.919-.153.602-.379 1.052-.66 1.338l1.43 1.4zm.992-7.908l-14.5-14.5-1.414 1.415 14.5 14.5 1.414-1.415zM35.271 27.317l-7.5 8 1.459 1.367 7.5-8-1.46-1.367zM9.207 44.207l18-18-1.414-1.414-18 18 1.414 1.415zm3.5 3.5l18-18-1.414-1.414-18 18 1.414 1.415z" fill="url(#paint0_linear_117_5409)"/><defs><linearGradient id="paint0_linear_117_5409" x1="1.5" y1="8.56" x2="51.591" y2="51.005" gradientUnits="userSpaceOnUse"><stop stop-color="#1E74EC"/><stop offset="1" stop-color="#002984"/></linearGradient></defs></svg>