<svg width="106" height="143" viewBox="0 0 106 143" fill="none" xmlns="http://www.w3.org/2000/svg">
<path d="M52.5117 142.4C84.7117 142.4 105.712 123.6 105.712 94V93.6C105.712 62 83.9117 48.8 56.7117 48.8C48.9117 48.8 43.9117 49.8 38.3117 51.2L39.9117 27H99.5117V-9.53674e-06H13.5117L9.51172 69L27.3117 80.8C33.9117 78 41.9117 75.6 50.7117 75.6C65.3117 75.6 75.5117 82.6 75.5117 94.6V95C75.5117 107.4 66.5117 114.4 52.1117 114.4C39.7117 114.4 29.3117 108.8 18.7117 99.2L0.111719 121.4C13.7117 134.4 30.1117 142.4 52.5117 142.4Z" fill="#DDDDE2"/>
</svg>
