<svg width="42" height="62" viewBox="0 0 42 62" fill="none" xmlns="http://www.w3.org/2000/svg">
<path d="M1 1V0C0.447715 0 0 0.447715 0 1L1 1ZM41 1H42C42 0.447715 41.5523 0 41 0V1ZM41 61V62C41.5523 62 42 61.5523 42 61H41ZM1 61H0C0 61.5523 0.447715 62 1 62L1 61ZM7 21V20C6.44772 20 6 20.4477 6 21H7ZM35 21H36C36 20.4477 35.5523 20 35 20V21ZM35 35V36C35.5523 36 36 35.5523 36 35H35ZM7 35H6C6 35.5523 6.44772 36 7 36V35ZM7 41V40C6.44772 40 6 40.4477 6 41H7ZM35 41H36C36 40.4477 35.5523 40 35 40V41ZM35 55V56C35.5523 56 36 55.5523 36 55H35ZM7 55H6C6 55.5523 6.44772 56 7 56V55ZM1 2H41V0H1V2ZM40 1V61H42V1H40ZM41 60H1V62H41V60ZM2 61V1H0V61H2ZM34 11C34 12.6569 32.6569 14 31 14V16C33.7614 16 36 13.7614 36 11H34ZM31 14C29.3431 14 28 12.6569 28 11H26C26 13.7614 28.2386 16 31 16V14ZM28 11C28 9.34315 29.3431 8 31 8V6C28.2386 6 26 8.23858 26 11H28ZM31 8C32.6569 8 34 9.34315 34 11H36C36 8.23858 33.7614 6 31 6V8ZM30 27C30 27.5523 29.5523 28 29 28V30C30.6569 30 32 28.6569 32 27H30ZM29 28C28.4477 28 28 27.5523 28 27H26C26 28.6569 27.3431 30 29 30V28ZM28 27C28 26.4477 28.4477 26 29 26V24C27.3431 24 26 25.3431 26 27H28ZM29 26C29.5523 26 30 26.4477 30 27H32C32 25.3431 30.6569 24 29 24V26ZM7 22H35V20H7V22ZM34 21V35H36V21H34ZM35 34H7V36H35V34ZM8 35V21H6V35H8ZM30 47C30 47.5523 29.5523 48 29 48V50C30.6569 50 32 48.6569 32 47H30ZM29 48C28.4477 48 28 47.5523 28 47H26C26 48.6569 27.3431 50 29 50V48ZM28 47C28 46.4477 28.4477 46 29 46V44C27.3431 44 26 45.3431 26 47H28ZM29 46C29.5523 46 30 46.4477 30 47H32C32 45.3431 30.6569 44 29 44V46ZM7 42H35V40H7V42ZM34 41V55H36V41H34ZM35 54H7V56H35V54ZM8 55V41H6V55H8Z" fill="#E6E8EF"/>
</svg>
