<svg width="111" height="146" viewBox="0 0 111 146" fill="none" xmlns="http://www.w3.org/2000/svg">
<path d="M57.0891 145.4C87.4891 145.4 110.489 125.6 110.489 97V96.6C110.489 67.4 89.0891 52 61.2891 52C48.4891 52 39.6891 56 32.2891 61C33.2891 48.8 39.4891 28.6 60.4891 28.6C72.4891 28.6 79.8891 32.8 89.0891 39.8L105.289 16C92.8891 6.2 80.4891 0.599998 61.4891 0.599998C19.6891 0.599998 0.0890628 33.8 0.0890628 77V77.4C0.0890628 105.2 6.48906 120.2 16.6891 130.4C26.4891 140.2 38.8891 145.4 57.0891 145.4ZM55.8891 119C40.6891 119 31.4891 110 31.4891 98.2V97.8C31.4891 86 40.2891 77.6 55.4891 77.6C70.6891 77.6 79.8891 86.2 79.8891 98V98.4C79.8891 110.4 71.0891 119 55.8891 119Z" fill="#DDDDE2"/>
</svg>
