<svg width="72" height="76" viewBox="0 0 72 76" fill="none" xmlns="http://www.w3.org/2000/svg">
<path fill-rule="evenodd" clip-rule="evenodd" d="M36.982 12.7252C40.0505 12.2527 42.4001 9.60078 42.4001 6.40005C42.4001 2.86543 39.5348 6.10352e-05 36.0002 6.10352e-05C32.4655 6.10352e-05 29.6002 2.86543 29.6002 6.40005C29.6002 9.60083 31.9498 12.2528 35.0184 12.7252V17.6004C35.0184 17.6632 35.0243 17.7246 35.0356 17.7842L17.9608 26.3215C17.6282 26.4878 17.4181 26.8278 17.4181 27.1997V36.6181H12.7254C12.253 33.5495 9.60101 31.1998 6.40023 31.1998C2.86562 31.1998 0.000244141 34.0652 0.000244141 37.5998C0.000244141 41.1344 2.86562 43.9998 6.40023 43.9998C9.60097 43.9998 12.2529 41.6502 12.7254 38.5817H17.4181V47.9997C17.4181 48.359 17.6143 48.6895 17.9297 48.8616L35.0399 58.1944C35.0258 58.2607 35.0184 58.3294 35.0184 58.3999V63.2749C31.9498 63.7473 29.6002 66.3993 29.6002 69.6001C29.6002 73.1347 32.4655 76.0001 36.0002 76.0001C39.5348 76.0001 42.4001 73.1347 42.4001 69.6001C42.4001 66.3993 40.0505 63.7474 36.982 63.2749V58.3999C36.982 58.3293 36.9746 58.2604 36.9604 58.1941L54.07 48.8616C54.3854 48.6895 54.5816 48.359 54.5816 47.9997V38.5817H59.2749C59.7474 41.6502 62.3993 43.9998 65.6001 43.9998C69.1347 43.9998 72.0001 41.1344 72.0001 37.5998C72.0001 34.0652 69.1347 31.1998 65.6001 31.1998C62.3993 31.1998 59.7473 33.5495 59.2749 36.6181H54.5816V27.1997C54.5816 26.8278 54.3715 26.4878 54.0389 26.3215L36.9648 17.7845C36.9761 17.7248 36.982 17.6633 36.982 17.6004V12.7252ZM40.4365 6.40005C40.4365 8.85018 38.4503 10.8364 36.0002 10.8364C33.55 10.8364 31.5638 8.85018 31.5638 6.40005C31.5638 3.94992 33.55 1.96369 36.0002 1.96369C38.4503 1.96369 40.4365 3.94992 40.4365 6.40005ZM19.3817 47.4168V37.6285C19.382 37.619 19.3821 37.6095 19.3821 37.5999L19.3819 37.5813L19.3817 37.5712V28.7883L35.018 36.6065V55.9457L19.3817 47.4168ZM36.9817 55.9457L52.618 47.4168V28.7883L36.9817 36.6065V55.9457ZM35.9999 34.902L51.4044 27.1997L35.9999 19.4974L20.5953 27.1997L35.9999 34.902ZM6.40023 42.0362C8.85037 42.0362 10.8366 40.0499 10.8366 37.5998C10.8366 35.1497 8.85037 33.1635 6.40023 33.1635C3.9501 33.1635 1.96388 35.1497 1.96388 37.5998C1.96388 40.0499 3.9501 42.0362 6.40023 42.0362ZM65.6001 42.0362C68.0502 42.0362 70.0364 40.0499 70.0364 37.5998C70.0364 35.1497 68.0502 33.1635 65.6001 33.1635C63.1499 33.1635 61.1637 35.1497 61.1637 37.5998C61.1637 40.0499 63.1499 42.0362 65.6001 42.0362ZM40.4365 69.6001C40.4365 72.0502 38.4503 74.0364 36.0002 74.0364C33.55 74.0364 31.5638 72.0502 31.5638 69.6001C31.5638 67.1499 33.55 65.1637 36.0002 65.1637C38.4503 65.1637 40.4365 67.1499 40.4365 69.6001Z" fill="url(#paint0_linear_829_1088)"/>
<defs>
<linearGradient id="paint0_linear_829_1088" x1="0.000243637" y1="10.6876" x2="75.2777" y2="71.9742" gradientUnits="userSpaceOnUse">
<stop stop-color="#1E74EC"/>
<stop offset="1" stop-color="#002984"/>
</linearGradient>
</defs>
</svg>
